{
  "asset": {
    "version": "2.0",
    "generator": "THREE.GLTFExporter"
  },
  "scenes": [
    {
      "nodes": [
        3
      ],
      "name": "AuxScene"
    }
  ],
  "scene": 0,
  "nodes": [
    {
      "name": "a_c_chimp_1_0_0",
      "mesh": 0
    },
    {
      "name": "a_c_chimp_1_0_1",
      "mesh": 1
    },
    {
      "name": "a_c_chimp_1_0_2",
      "mesh": 2
    },
    {
      "children": [
        0,
        1,
        2
      ]
    }
  ],
  "meshes": [
    {
      "primitives": [
        {
          "mode": 4,
          "attributes": {
            "POSITION": 0,
            "NORMAL": 1,
            "TEXCOORD_0": 2
          },
          "material": 0,
          "indices": 3
        }
      ]
    },
    {
      "primitives": [
        {
          "mode": 4,
          "attributes": {
            "POSITION": 4,
            "NORMAL": 5,
            "TEXCOORD_0": 6
          },
          "material": 0,
          "indices": 7
        }
      ]
    },
    {
      "primitives": [
        {
          "mode": 4,
          "attributes": {
            "POSITION": 8,
            "NORMAL": 9,
            "TEXCOORD_0": 10
          },
          "material": 0,
          "indices": 11
        }
      ]
    }
  ],
  "accessors": [
    {
      "bufferView": 0,
      "componentType": 5126,
      "count": 7347,
      "max": [
        0.4813530147075653,
        0.44791701436042786,
        0.3420009911060333
      ],
      "min": [
        -0.5679630041122437,
        -0.9578449726104736,
        -0.037393998354673386
      ],
      "type": "VEC3"
    },
    {
      "bufferView": 1,
      "componentType": 5126,
      "count": 7347,
      "max": [
        0.999435305595398,
        0.9996896982192993,
        1
      ],
      "min": [
        -0.9990314841270447,
        -1,
        -0.9993682503700256
      ],
      "type": "VEC3"
    },
    {
      "bufferView": 2,
      "componentType": 5126,
      "count": 7347,
      "max": [
        0.9946290254592896,
        0.9908909797668457
      ],
      "min": [
        -0.21777300536632538,
        0.005859000142663717
      ],
      "type": "VEC2"
    },
    {
      "bufferView": 3,
      "componentType": 5123,
      "count": 7347,
      "max": [
        7346
      ],
      "min": [
        0
      ],
      "type": "SCALAR"
    },
    {
      "bufferView": 4,
      "componentType": 5126,
      "count": 1806,
      "max": [
        0.4813530147075653,
        0.354654997587204,
        0.3380950093269348
      ],
      "min": [
        -0.6255800127983093,
        -0.9036459922790527,
        0.007528000045567751
      ],
      "type": "VEC3"
    },
    {
      "bufferView": 5,
      "componentType": 5126,
      "count": 1806,
      "max": [
        0.9990248084068298,
        0.9917927384376526,
        0.999152660369873
      ],
      "min": [
        -0.9990247488021851,
        -1,
        -0.998404860496521
      ],
      "type": "VEC3"
    },
    {
      "bufferView": 6,
      "componentType": 5126,
      "count": 1806,
      "max": [
        0.9863280057907104,
        0.9375609755516052
      ],
      "min": [
        -0.1015629991889,
        0.02099600061774254
      ],
      "type": "VEC2"
    },
    {
      "bufferView": 7,
      "componentType": 5123,
      "count": 1806,
      "max": [
        1805
      ],
      "min": [
        0
      ],
      "type": "SCALAR"
    },
    {
      "bufferView": 8,
      "componentType": 5126,
      "count": 420,
      "max": [
        0.04092400148510933,
        0.40836599469184875,
        0.2790130078792572
      ],
      "min": [
        -0.11190800368785858,
        0.32194000482559204,
        0.14766499400138855
      ],
      "type": "VEC3"
    },
    {
      "bufferView": 9,
      "componentType": 5126,
      "count": 420,
      "max": [
        0.9775453209877014,
        0.9473468065261841,
        0.9948258996009827
      ],
      "min": [
        -0.9688827395439148,
        -0.9743061065673828,
        -0.9993682503700256
      ],
      "type": "VEC3"
    },
    {
      "bufferView": 10,
      "componentType": 5126,
      "count": 420,
      "max": [
        0.8271480202674866,
        0.9668580293655396
      ],
      "min": [
        0.27270498871803284,
        0.17480500042438507
      ],
      "type": "VEC2"
    },
    {
      "bufferView": 11,
      "componentType": 5123,
      "count": 420,
      "max": [
        419
      ],
      "min": [
        0
      ],
      "type": "SCALAR"
    }
  ],
  "bufferViews": [
    {
      "buffer": 0,
      "byteOffset": 0,
      "byteLength": 88164,
      "target": 34962,
      "byteStride": 12
    },
    {
      "buffer": 0,
      "byteOffset": 88164,
      "byteLength": 88164,
      "target": 34962,
      "byteStride": 12
    },
    {
      "buffer": 0,
      "byteOffset": 176328,
      "byteLength": 58776,
      "target": 34962,
      "byteStride": 8
    },
    {
      "buffer": 0,
      "byteOffset": 235104,
      "byteLength": 14696,
      "target": 34963
    },
    {
      "buffer": 0,
      "byteOffset": 249800,
      "byteLength": 21672,
      "target": 34962,
      "byteStride": 12
    },
    {
      "buffer": 0,
      "byteOffset": 271472,
      "byteLength": 21672,
      "target": 34962,
      "byteStride": 12
    },
    {
      "buffer": 0,
      "byteOffset": 293144,
      "byteLength": 14448,
      "target": 34962,
      "byteStride": 8
    },
    {
      "buffer": 0,
      "byteOffset": 307592,
      "byteLength": 3612,
      "target": 34963
    },
    {
      "buffer": 0,
      "byteOffset": 311204,
      "byteLength": 5040,
      "target": 34962,
      "byteStride": 12
    },
    {
      "buffer": 0,
      "byteOffset": 316244,
      "byteLength": 5040,
      "target": 34962,
      "byteStride": 12
    },
    {
      "buffer": 0,
      "byteOffset": 321284,
      "byteLength": 3360,
      "target": 34962,
      "byteStride": 8
    },
    {
      "buffer": 0,
      "byteOffset": 324644,
      "byteLength": 840,
      "target": 34963
    }
  ],
  "buffers": [
    {
      "byteLength": 325484,
      "uri": "data:application/octet-stream;base64,"
    }
  ],
  "materials": [
    {
      "pbrMetallicRoughness": {
        "metallicFactor": 0.5,
        "roughnessFactor": 0.5
      },
      "name": "_a_c_chimp_1a_c_chimp_1_0"
    }
  ]
}