{
  "asset": {
    "version": "2.0",
    "generator": "THREE.GLTFExporter"
  },
  "scenes": [
    {
      "nodes": [
        3
      ],
      "name": "AuxScene"
    }
  ],
  "scene": 0,
  "nodes": [
    {
      "matrix": [
        0.6858805227588215,
        0.7276337798221844,
        -0.01081676496127443,
        0,
        -0.31737012017781413,
        0.312468588159158,
        0.8953431988503591,
        0,
        0.6548619150387258,
        -0.6106656011496411,
        0.4452453793392169,
        0,
        7.481132,
        -6.50764,
        5.343665,
        1
      ],
      "name": "Camera",
      "camera": 0
    },
    {
      "matrix": [
        7.996709,
        0,
        0,
        0,
        0,
        7.996709,
        0,
        0,
        0,
        0,
        7.996709,
        0,
        0,
        0,
        0,
        1
      ],
      "name": "Background",
      "mesh": 0
    },
    {
      "matrix": [
        -0.03706023999999992,
        0.4731168,
        0,
        0,
        -0.4731168,
        -0.03706023999999992,
        0,
        0,
        0,
        0,
        0.474566,
        0,
        -0.2983572,
        1.08545,
        0,
        1
      ],
      "name": "Raw_meat",
      "mesh": 1
    },
    {
      "matrix": [
        1,
        0,
        0,
        0,
        0,
        2.220446049250313e-16,
        -1,
        0,
        0,
        1,
        2.220446049250313e-16,
        0,
        0,
        0,
        0,
        1
      ],
      "name": "Scene",
      "children": [
        0,
        1,
        2
      ]
    }
  ],
  "cameras": [
    {
      "type": "perspective",
      "perspective": {
        "aspectRatio": 1.777778,
        "yfov": 0.4908737907641813,
        "zfar": 100,
        "znear": 0.1
      },
      "name": "PerspectiveCamera"
    }
  ],
  "meshes": [
    {
      "primitives": [
        {
          "mode": 4,
          "attributes": {
            "POSITION": 0,
            "NORMAL": 1
          },
          "material": 0,
          "indices": 2
        }
      ]
    },
    {
      "primitives": [
        {
          "mode": 4,
          "attributes": {
            "POSITION": 3,
            "NORMAL": 4,
            "TEXCOORD_0": 5
          },
          "material": 1,
          "indices": 6
        }
      ]
    }
  ],
  "accessors": [
    {
      "bufferView": 0,
      "componentType": 5126,
      "count": 42,
      "max": [
        1,
        1.7503089904785156,
        1.5006170272827148
      ],
      "min": [
        -1.7503089904785156,
        -1,
        0
      ],
      "type": "VEC3"
    },
    {
      "bufferView": 1,
      "componentType": 5126,
      "count": 42,
      "max": [
        0.9761651158332825,
        0,
        1
      ],
      "min": [
        0,
        -0.9761651158332825,
        0.2169255018234253
      ],
      "type": "VEC3"
    },
    {
      "bufferView": 2,
      "componentType": 5123,
      "count": 42,
      "max": [
        41
      ],
      "min": [
        0
      ],
      "type": "SCALAR"
    },
    {
      "bufferView": 3,
      "componentType": 5126,
      "count": 744,
      "max": [
        1.4240570068359375,
        6.029271125793457,
        0.9684842824935913
      ],
      "min": [
        -5.667366981506348,
        -4.440112113952637,
        0
      ],
      "type": "VEC3"
    },
    {
      "bufferView": 4,
      "componentType": 5126,
      "count": 744,
      "max": [
        0.9568300843238831,
        0.9030175805091858,
        1
      ],
      "min": [
        -0.9275090098381042,
        -0.7558482885360718,
        -1
      ],
      "type": "VEC3"
    },
    {
      "bufferView": 5,
      "componentType": 5126,
      "count": 744,
      "max": [
        0.9315478205680847,
        0.903231680393219
      ],
      "min": [
        0.06262481212615967,
        0.07578080147504807
      ],
      "type": "VEC2"
    },
    {
      "bufferView": 6,
      "componentType": 5123,
      "count": 744,
      "max": [
        743
      ],
      "min": [
        0
      ],
      "type": "SCALAR"
    }
  ],
  "bufferViews": [
    {
      "buffer": 0,
      "byteOffset": 0,
      "byteLength": 504,
      "target": 34962,
      "byteStride": 12
    },
    {
      "buffer": 0,
      "byteOffset": 504,
      "byteLength": 504,
      "target": 34962,
      "byteStride": 12
    },
    {
      "buffer": 0,
      "byteOffset": 1008,
      "byteLength": 84,
      "target": 34963
    },
    {
      "buffer": 0,
      "byteOffset": 1092,
      "byteLength": 8928,
      "target": 34962,
      "byteStride": 12
    },
    {
      "buffer": 0,
      "byteOffset": 10020,
      "byteLength": 8928,
      "target": 34962,
      "byteStride": 12
    },
    {
      "buffer": 0,
      "byteOffset": 18948,
      "byteLength": 5952,
      "target": 34962,
      "byteStride": 8
    },
    {
      "buffer": 0,
      "byteOffset": 24900,
      "byteLength": 1488,
      "target": 34963
    }
  ],
  "buffers": [
    {
      "byteLength": 26388,
      "uri": "data:application/octet-stream;base64,"
    }
  ],
  "materials": [
    {
      "pbrMetallicRoughness": {
        "metallicFactor": 0.5,
        "roughnessFactor": 0.5
      }
    },
    {
      "pbrMetallicRoughness": {
        "baseColorFactor": [
          0.64,
          0.64,
          0.64,
          1
        ],
        "metallicFactor": 0.5,
        "roughnessFactor": 0.5
      },
      "name": "Meat"
    }
  ]
}
